<?xml version="1.0" standalone="no"?>
<!DOCTYPE svg PUBLIC "-//W3C//DTD SVG 20010904//EN"
 "http://www.w3.org/TR/2001/REC-SVG-20010904/DTD/svg10.dtd">
<svg version="1.0" xmlns="http://www.w3.org/2000/svg"
 width="512.000000pt" height="512.000000pt" viewBox="0 0 512.000000 512.000000"
 preserveAspectRatio="xMidYMid meet">

<g transform="translate(0.000000,512.000000) scale(0.100000,-0.100000)"
fill="#000000" stroke="none">
<path d="M1381 5104 c-165 -44 -301 -190 -331 -354 -7 -37 -9 -791 -8 -2225
l3 -2170 23 -57 c48 -118 152 -222 269 -270 l58 -23 1160 0 c1099 0 1163 1
1213 18 123 43 234 150 284 275 l23 57 0 2205 0 2205 -23 57 c-49 122 -148
220 -272 271 l-55 22 -1145 2 c-977 2 -1153 0 -1199 -13z m384 -340 c40 -126
55 -160 78 -180 l29 -24 690 0 690 0 28 28 c21 22 40 66 76 181 l48 153 146
-4 c117 -3 152 -7 180 -22 49 -25 98 -74 123 -121 l22 -40 0 -2175 0 -2175
-22 -40 c-25 -47 -74 -95 -123 -121 -34 -18 -82 -19 -1170 -19 -1088 0 -1136
1 -1170 19 -49 26 -98 74 -123 121 l-22 40 0 2175 c0 2102 1 2176 19 2210 36
68 97 120 166 141 14 4 84 8 156 8 l131 1 48 -156z m1425 148 c0 -4 -11 -39
-23 -78 l-24 -69 -583 0 -583 0 -24 69 c-12 39 -23 74 -23 78 0 4 284 8 630 8
347 0 630 -4 630 -8z"/>
<path d="M2012 3314 c-551 -281 -552 -281 -552 -348 0 -41 40 -75 165 -140
l120 -61 5 -322 c5 -306 6 -323 25 -342 26 -25 757 -361 786 -361 36 0 761
337 787 366 22 25 22 28 22 339 l0 315 40 20 c21 11 42 20 45 20 3 0 5 -81 5
-180 0 -197 6 -226 55 -248 51 -24 112 -4 133 43 19 41 17 567 -3 604 -12 23
-91 68 -437 244 -597 303 -625 317 -650 317 -13 0 -258 -120 -546 -266z m946
-148 c204 -104 372 -192 372 -196 0 -3 -173 -94 -384 -201 l-384 -194 -386
195 c-212 107 -386 197 -386 200 0 12 756 390 775 388 11 -2 188 -88 393 -192z
m-396 -806 c11 0 152 67 314 150 l294 150 -2 -216 -3 -216 -302 -138 -302
-139 -263 121 c-145 66 -282 129 -305 140 l-43 19 0 215 0 215 296 -150 c163
-83 306 -151 316 -151z"/>
<path d="M2503 1000 c-96 -20 -169 -75 -212 -162 -27 -52 -31 -72 -31 -137 0
-92 22 -146 83 -209 70 -72 107 -87 217 -87 110 0 148 15 216 87 61 63 77 101
82 194 5 91 -12 143 -68 214 -58 73 -191 119 -287 100z m130 -231 c61 -66 17
-169 -73 -169 -88 0 -133 100 -75 169 42 49 102 49 148 0z"/>
</g>
</svg>
